<mxfile host="app.diagrams.net" agent="Mozilla/5.0 (Windows NT 10.0; Win64; x64) AppleWebKit/537.36 (KHTML, like Gecko) Chrome/136.0.0.0 Safari/537.36" version="27.0.6">
  <diagram name="第 1 页" id="Fd9RDD6e_UExxNZo-_zk">
    <mxGraphModel dx="595" dy="301" grid="1" gridSize="10" guides="1" tooltips="1" connect="1" arrows="1" fold="1" page="1" pageScale="1" pageWidth="827" pageHeight="1169" math="0" shadow="0">
      <root>
        <mxCell id="0" />
        <mxCell id="1" parent="0" />
        <mxCell id="G-LFRhL24GBSa-7Ttdbv-1" value="Nacos注册中心" style="rounded=0;whiteSpace=wrap;html=1;" vertex="1" parent="1">
          <mxGeometry x="354" y="250" width="120" height="60" as="geometry" />
        </mxCell>
        <mxCell id="G-LFRhL24GBSa-7Ttdbv-12" style="edgeStyle=orthogonalEdgeStyle;rounded=0;orthogonalLoop=1;jettySize=auto;html=1;entryX=1;entryY=0.5;entryDx=0;entryDy=0;" edge="1" parent="1" source="G-LFRhL24GBSa-7Ttdbv-2" target="G-LFRhL24GBSa-7Ttdbv-1">
          <mxGeometry relative="1" as="geometry">
            <Array as="points">
              <mxPoint x="630" y="280" />
            </Array>
          </mxGeometry>
        </mxCell>
        <mxCell id="G-LFRhL24GBSa-7Ttdbv-2" value="服务提供者A" style="rounded=0;whiteSpace=wrap;html=1;" vertex="1" parent="1">
          <mxGeometry x="570" y="340" width="120" height="60" as="geometry" />
        </mxCell>
        <mxCell id="G-LFRhL24GBSa-7Ttdbv-3" value="服务提供者B" style="rounded=0;whiteSpace=wrap;html=1;" vertex="1" parent="1">
          <mxGeometry x="570" y="160" width="120" height="60" as="geometry" />
        </mxCell>
        <mxCell id="G-LFRhL24GBSa-7Ttdbv-10" style="edgeStyle=orthogonalEdgeStyle;rounded=0;orthogonalLoop=1;jettySize=auto;html=1;entryX=0;entryY=0.5;entryDx=0;entryDy=0;exitX=0.449;exitY=0;exitDx=0;exitDy=0;exitPerimeter=0;" edge="1" parent="1" source="G-LFRhL24GBSa-7Ttdbv-4" target="G-LFRhL24GBSa-7Ttdbv-1">
          <mxGeometry relative="1" as="geometry">
            <mxPoint x="260" y="280" as="targetPoint" />
          </mxGeometry>
        </mxCell>
        <mxCell id="G-LFRhL24GBSa-7Ttdbv-11" value="订阅" style="edgeLabel;html=1;align=center;verticalAlign=middle;resizable=0;points=[];" vertex="1" connectable="0" parent="G-LFRhL24GBSa-7Ttdbv-10">
          <mxGeometry x="-0.0364" y="1" relative="1" as="geometry">
            <mxPoint as="offset" />
          </mxGeometry>
        </mxCell>
        <mxCell id="G-LFRhL24GBSa-7Ttdbv-14" style="edgeStyle=orthogonalEdgeStyle;rounded=0;orthogonalLoop=1;jettySize=auto;html=1;" edge="1" parent="1" source="G-LFRhL24GBSa-7Ttdbv-4" target="G-LFRhL24GBSa-7Ttdbv-2">
          <mxGeometry relative="1" as="geometry" />
        </mxCell>
        <mxCell id="G-LFRhL24GBSa-7Ttdbv-4" value="服务消费者B" style="rounded=0;whiteSpace=wrap;html=1;" vertex="1" parent="1">
          <mxGeometry x="200" y="340" width="120" height="60" as="geometry" />
        </mxCell>
        <mxCell id="G-LFRhL24GBSa-7Ttdbv-5" value="服务消费者A" style="rounded=0;whiteSpace=wrap;html=1;" vertex="1" parent="1">
          <mxGeometry x="200" y="160" width="120" height="60" as="geometry" />
        </mxCell>
        <mxCell id="G-LFRhL24GBSa-7Ttdbv-6" style="edgeStyle=orthogonalEdgeStyle;rounded=0;orthogonalLoop=1;jettySize=auto;html=1;" edge="1" parent="1" source="G-LFRhL24GBSa-7Ttdbv-5">
          <mxGeometry relative="1" as="geometry">
            <mxPoint x="390" y="250" as="targetPoint" />
          </mxGeometry>
        </mxCell>
        <mxCell id="G-LFRhL24GBSa-7Ttdbv-7" value="获取实例" style="edgeLabel;html=1;align=center;verticalAlign=middle;resizable=0;points=[];" vertex="1" connectable="0" parent="G-LFRhL24GBSa-7Ttdbv-6">
          <mxGeometry x="-0.736" y="-1" relative="1" as="geometry">
            <mxPoint x="22" y="-1" as="offset" />
          </mxGeometry>
        </mxCell>
        <mxCell id="G-LFRhL24GBSa-7Ttdbv-8" style="edgeStyle=orthogonalEdgeStyle;rounded=0;orthogonalLoop=1;jettySize=auto;html=1;entryX=0.8;entryY=0;entryDx=0;entryDy=0;entryPerimeter=0;" edge="1" parent="1" source="G-LFRhL24GBSa-7Ttdbv-3" target="G-LFRhL24GBSa-7Ttdbv-1">
          <mxGeometry relative="1" as="geometry" />
        </mxCell>
        <mxCell id="G-LFRhL24GBSa-7Ttdbv-9" value="服务注册、维持心跳" style="text;html=1;align=center;verticalAlign=middle;resizable=0;points=[];autosize=1;strokeColor=none;fillColor=none;" vertex="1" parent="1">
          <mxGeometry x="440" y="168" width="130" height="30" as="geometry" />
        </mxCell>
        <mxCell id="G-LFRhL24GBSa-7Ttdbv-13" value="服务注册、维持心跳" style="text;html=1;align=center;verticalAlign=middle;resizable=0;points=[];autosize=1;strokeColor=none;fillColor=none;" vertex="1" parent="1">
          <mxGeometry x="490" y="250" width="130" height="30" as="geometry" />
        </mxCell>
        <mxCell id="G-LFRhL24GBSa-7Ttdbv-15" value="从注册中心获取服务A的地址，发起调用" style="text;html=1;align=center;verticalAlign=middle;resizable=0;points=[];autosize=1;strokeColor=none;fillColor=none;" vertex="1" parent="1">
          <mxGeometry x="330" y="340" width="240" height="30" as="geometry" />
        </mxCell>
      </root>
    </mxGraphModel>
  </diagram>
</mxfile>
